# xmcd CD database file
#
# Track frame offsets:
#	150
#	13892
#	28905
#	42462
#	57350
#	70572
#	84665
#	99285
#	113107
#	126162
#	140532
#	155860
#	170287
#	184107
#	197842
#	210827
#
# Disc length: 3018 seconds
#
# Revision: 1
# Processed by: cddbd v1.5.1PL0 Copyright (c) Steve Scherf et al.
# Submitted via: CDex 1.51
#
DISCID=df0bc810
DTITLE=Charley Patton - ''Screamin' and Hollerin' the Blues'' - by The Masked Marvel - disc 4
DYEAR=2001
DGENRE=Blues
TTITLE0=Some Summer Day
TTITLE1=Bird Nest Bound
TTITLE2=Future Blues - Willie Brown
TTITLE3=M&O Blues - Willie Brown
TTITLE4=Walkin' Blues - Son House
TTITLE5=My Black Mama  (part 1) - Son House
TTITLE6=My Black Mama  (part 2) - Son House
TTITLE7=Preachin' the Blues  (part 1) - Son House
TTITLE8=Preachin' the Blues  (part 2) - Son House
TTITLE9=Dry Spell Blues  (part 1) - Son House
TTITLE10=Dry Spell Blues  (part 2) - Son House
TTITLE11=All Night Long Blues - Louise Johnson
TTITLE12=On the Wall - Louise Johnson
TTITLE13=All Night Long Blues  (previously unissued) - Louise Johnson
TTITLE14=By the Moon and Stars - Louise Johnson
TTITLE15=Long Ways from Home - Louise Johnson
EXTD=Various artists: tracks 1,2 =Charley Patton - 3,4 =Willie Brown - 5-11 \n=Son House - 12-16 =Louisee Johnson -  recorded June 1930 YEAR: 2001
EXTT0=
EXTT1=
EXTT2=
EXTT3=
EXTT4=
EXTT5=
EXTT6=
EXTT7=
EXTT8=
EXTT9=
EXTT10=
EXTT11=
EXTT12=
EXTT13=
EXTT14=
EXTT15=
PLAYORDER=
